<?xml version="1.0" encoding="UTF-8"?><svg xmlns="http://www.w3.org/2000/svg" xmlns:xlink="http://www.w3.org/1999/xlink" height="126.0" preserveAspectRatio="xMidYMid meet" version="1.0" viewBox="0.0 0.0 120.1 126.0" width="120.1" zoomAndPan="magnify"><g><g><g><g><g><g id="change1_1"><path d="M67.521,1v49.36v0.062c0,0,0,0,0,0s0,0,0,0V97v7.58v6.62v6.62v7.16h10.46 c3.96,0,7.17-3.2,7.17-7.16c0-2.08,0-4.4,0-6.62c0-2.46,0-4.81,0-6.62c0-2.06,1.23-3.89,3.12-4.72 c18.16-7.98,30.85-26.14,30.85-47.26C119.121,24.1,96.021,1,67.521,1z" fill="#7797a2"/></g><g id="change1_2"><path d="M57.661,5.68c0,1.44-0.51,2.79-1.37,3.84c-0.87,1.05-2.09,1.82-3.5,2.1 c-2.84,0.56-5.69-0.96-6.8-3.63l-1.7-4.12c-3.43,1.08-6.73,2.46-9.87,4.09c0,0,0.85,2.05,1.73,4.18 c0.31,0.75,0.46,1.52,0.46,2.29c0,1.95-0.96,3.84-2.66,4.98c-2.43,1.63-5.67,1.31-7.74-0.76l-3.11-3.11 c-2.73,2.3-5.26,4.82-7.55,7.55l3.15,3.15c1.17,1.17,1.77,2.72,1.77,4.28c0,1.17-0.34,2.34-1.03,3.37 c-1.61,2.41-4.69,3.34-7.36,2.23l-4.12-1.7c-1.63,3.14-3,6.43-4.09,9.86l4.12,1.7c2.3,0.95,3.75,3.19,3.75,5.6 c0,0.4-0.04,0.8-0.12,1.2c-0.57,2.83-3.05,4.87-5.94,4.87h-4.45c-0.15,1.76-0.23,3.54-0.23,5.34s0.08,3.58,0.23,5.34h4.44 c1.45,0,2.79,0.51,3.85,1.37c1.05,0.87,1.82,2.09,2.1,3.51c0.57,2.84-0.95,5.68-3.63,6.79l-4.12,1.7 c1.09,3.43,2.46,6.73,4.09,9.87l4.13-1.71c0.75-0.31,1.54-0.46,2.31-0.46c1.98,0,3.88,0.96,5.04,2.68 c1.61,2.41,1.3,5.62-0.75,7.67c-1.61,1.61-3.14,3.14-3.14,3.14c2.29,2.73,4.82,5.26,7.55,7.55l3.15-3.15 c1.17-1.17,2.72-1.77,4.28-1.77c1.17,0,2.34,0.34,3.37,1.03c2.4,1.6,3.33,4.68,2.23,7.35c-0.88,2.11-1.71,4.12-1.71,4.12 c3.14,1.64,6.44,3.01,9.87,4.09l1.77-4.27c1.07-2.59,3.82-4.05,6.56-3.51l0.32,0.07c2.74,0.54,4.72,2.95,4.72,5.74v4.62 c1.75,0.15,3.53,0.22,5.33,0.22V87.8c-13.7,0-24.81-11.11-24.81-24.81s11.11-24.81,24.81-24.81V1c-1.8,0-3.58,0.08-5.33,0.23 V5.68z" fill="#7797a2"/></g></g><g id="change2_1"><path d="M75.871,54.81c2.26,0,4.09,2.47,4.09,5.52c0,3.05-1.83,5.53-4.09,5.53 c-2.25,0-4.09-2.48-4.09-5.53C71.781,57.28,73.621,54.81,75.871,54.81z" fill="#ef9d26"/></g><g id="change3_1"><path d="M67.521,117.82h17.63c0,3.96-3.21,7.16-7.17,7.16h-10.46V117.82z" fill="#d2d2d1"/></g><g id="change3_2"><path d="M85.151,104.58c0,1.81,0,4.16,0,6.62h-17.63v-6.62h14.37H85.151z" fill="#d2d2d1"/></g><g id="change4_2"><path d="M85.151,111.2c0,2.22,0,4.54,0,6.62h-17.63v-6.62H85.151z" fill="#4d727a"/></g><g id="change4_1"><path d="M81.891,99.81v4.77h-14.37V97h10.31h1.05C80.541,97,81.891,98.26,81.891,99.81z" fill="#4d727a"/></g><g id="change5_1"><path d="M84.031,50.36c8.22,0,11.66,8.69,8.76,17.17c-1.56,4.6-5.82,7.97-9.4,10.11 c-3.42,2.03-5.56,5.66-5.56,9.64V97h-10.31V50.36c3.83,0,6.48,2.47,8.35,4.45c-2.25,0-4.09,2.47-4.09,5.52 c0,3.05,1.84,5.53,4.09,5.53c2.26,0,4.09-2.48,4.09-5.53c0-3.05-1.83-5.52-4.09-5.52C75.871,54.81,77.601,50.36,84.031,50.36z" fill="#fbe2ae"/></g><g id="change5_2"><path d="M119.121,52.6c0,21.12-12.69,39.28-30.85,47.26c-1.89,0.83-3.12,2.66-3.12,4.72h-3.26v-4.77 c0-1.55-1.35-2.81-3.01-2.81h-1.05v-9.72c0-3.98,2.14-7.61,5.56-9.64c3.58-2.14,7.84-5.51,9.4-10.11 c2.9-8.48-0.54-17.17-8.76-17.17c-6.43,0-8.16,4.45-8.16,4.45c-1.87-1.98-4.52-4.45-8.35-4.45V1 C96.021,1,119.121,24.1,119.121,52.6z" fill="#fbe2ae"/></g></g></g></g><g fill="#3a322b" id="change6_1"><path d="M62.992,0c-1.806,0-3.629,0.078-5.42,0.23c-0.518,0.044-0.915,0.477-0.915,0.997v4.455 c0,2.402-1.71,4.486-4.065,4.956c-2.369,0.469-4.753-0.804-5.676-3.032l-1.705-4.116c-0.198-0.479-0.728-0.728-1.226-0.571 c-3.44,1.088-6.813,2.486-10.023,4.156c-0.461,0.239-0.661,0.791-0.463,1.27l1.73,4.178c0.907,2.19,0.134,4.737-1.839,6.057 c-2.027,1.357-4.748,1.091-6.475-0.633l-3.111-3.111c-0.367-0.367-0.954-0.393-1.351-0.058c-2.766,2.328-5.347,4.909-7.672,7.672 c-0.335,0.397-0.31,0.984,0.058,1.351l3.149,3.15c1.702,1.702,1.965,4.389,0.624,6.389c-1.339,1.998-3.922,2.781-6.146,1.86 l-4.118-1.706c-0.479-0.198-1.03,0.002-1.27,0.462c-1.67,3.208-3.069,6.581-4.157,10.025c-0.156,0.495,0.091,1.026,0.57,1.225 l4.116,1.705c2.228,0.923,3.503,3.309,3.031,5.673c-0.471,2.359-2.558,4.071-4.963,4.071H1.228c-0.52,0-0.952,0.397-0.996,0.915 C0.078,59.362,0,61.187,0,62.992s0.078,3.629,0.231,5.424c0.044,0.518,0.477,0.915,0.996,0.915h4.446 c2.406,0,4.495,1.713,4.967,4.074c0.471,2.363-0.804,4.747-3.029,5.669L3.492,80.78c-0.479,0.199-0.727,0.73-0.57,1.225 C4.01,85.45,5.409,88.822,7.079,92.03c0.239,0.46,0.791,0.66,1.27,0.462l4.123-1.708c2.22-0.919,4.803-0.139,6.139,1.857 c1.343,2.002,1.079,4.693-0.626,6.398l-3.145,3.145c-0.367,0.367-0.393,0.954-0.058,1.351c2.325,2.763,4.906,5.344,7.672,7.672 c0.396,0.333,0.983,0.309,1.351-0.058l3.148-3.148c1.703-1.705,4.394-1.965,6.395-0.626c1.997,1.338,2.778,3.922,1.858,6.143 l-1.707,4.12c-0.198,0.479,0.002,1.031,0.462,1.27c3.211,1.67,6.584,3.068,10.024,4.156c0.498,0.156,1.027-0.092,1.226-0.571 l1.77-4.271c0.886-2.139,3.176-3.363,5.446-2.911l0.321,0.064c2.265,0.452,3.909,2.456,3.909,4.766v4.614 c0,0.52,0.397,0.952,0.915,0.997c1.791,0.152,3.614,0.23,5.42,0.23c0.553,0,1-0.448,1-1V87.798c0-0.552-0.447-1-1-1 c-13.127,0-23.807-10.68-23.807-23.807s10.68-23.807,23.807-23.807c0.553,0,1-0.448,1-1V1C63.992,0.448,63.545,0,62.992,0z M61.992,37.204c-13.768,0.528-24.807,11.893-24.807,25.788s11.039,25.26,24.807,25.788v35.196 c-1.112-0.018-2.229-0.066-3.335-0.144v-3.689c0-3.26-2.32-6.089-5.518-6.727l-0.321-0.064c-3.208-0.64-6.437,1.089-7.686,4.106 l-1.416,3.417c-2.74-0.912-5.429-2.027-8.017-3.324l1.354-3.267c1.283-3.099,0.193-6.703-2.593-8.57 c-2.792-1.871-6.544-1.505-8.922,0.873l-2.494,2.494c-2.185-1.896-4.243-3.954-6.137-6.137l2.49-2.491 c2.379-2.378,2.746-6.132,0.874-8.926c-1.866-2.785-5.471-3.875-8.566-2.592l-3.27,1.354c-1.297-2.586-2.412-5.275-3.325-8.017 l3.266-1.353c3.104-1.286,4.882-4.611,4.225-7.908c-0.657-3.293-3.571-5.683-6.928-5.683H2.152C2.052,65.89,2,64.434,2,62.992 s0.052-2.898,0.152-4.339h3.524c3.355,0,6.268-2.389,6.924-5.68c0.658-3.298-1.12-6.625-4.227-7.912l-3.263-1.352 c0.913-2.742,2.028-5.431,3.325-8.017l3.265,1.353c3.101,1.285,6.705,0.193,8.574-2.594c1.87-2.791,1.504-6.541-0.872-8.917 l-2.495-2.496c1.894-2.183,3.952-4.241,6.136-6.137l2.458,2.458c2.398,2.397,6.185,2.77,9.001,0.881 c2.763-1.848,3.846-5.417,2.574-8.485L35.7,8.432c2.588-1.296,5.277-2.411,8.017-3.324l1.352,3.263 c1.288,3.107,4.618,4.884,7.914,4.228c3.288-0.655,5.675-3.564,5.675-6.917v-3.53c1.106-0.078,2.223-0.125,3.335-0.144V37.204z" fill="inherit"/><path d="M67.52,0c-0.553,0-1,0.448-1,1v123.983c0,0.552,0.447,1,1,1H77.98c4.503,0,8.167-3.662,8.167-8.162 v-13.239c0-1.637,0.99-3.13,2.521-3.804c19.106-8.4,31.452-27.311,31.452-48.177C120.121,23.597,96.524,0,67.52,0z M75.875,55.809 c1.675,0,3.09,2.071,3.09,4.523s-1.415,4.523-3.09,4.523s-3.09-2.071-3.09-4.523S74.2,55.809,75.875,55.809z M70.785,60.332 c0,3.597,2.283,6.523,5.09,6.523s5.09-2.926,5.09-6.523c0-2.891-1.477-5.346-3.513-6.199c0.887-1.129,2.82-2.777,6.58-2.777 c2.865,0,5.211,1.163,6.784,3.362c2.212,3.092,2.607,7.878,1.032,12.491c-1.495,4.379-5.703,7.62-8.97,9.567 c-3.731,2.225-6.05,6.25-6.05,10.504v8.722h-8.31v-44.57c2.159,0.282,3.893,1.447,5.422,2.869 C72.091,55.279,70.785,57.613,70.785,60.332z M68.52,116.821v-4.62h15.628v4.62H68.52z M84.147,110.202H68.52v-4.62h15.628 V110.202z M80.892,103.582H68.52v-5.58h10.366c1.106,0,2.006,0.811,2.006,1.808V103.582z M77.98,123.983H68.52v-5.162h15.539 C83.578,121.744,81.039,123.983,77.98,123.983z M87.864,98.947c-1.943,0.854-3.288,2.613-3.627,4.635h-1.346v-3.771 c0-2.1-1.797-3.808-4.006-3.808h-0.057V87.28c0-3.554,1.944-6.92,5.073-8.786c3.556-2.119,8.147-5.685,9.839-10.639 c1.78-5.213,1.282-10.692-1.298-14.3c-1.937-2.708-4.924-4.199-8.411-4.199c-4.841,0-7.283,2.308-8.364,3.818 c-1.874-1.814-4.164-3.447-7.148-3.754V2.01c27.442,0.534,49.602,23.024,49.602,50.592 C118.121,72.675,106.244,90.867,87.864,98.947z" fill="inherit"/></g></g></svg>